<?xml version="1.0" standalone="no"?>
<!DOCTYPE svg PUBLIC "-//W3C//DTD SVG 20010904//EN"
 "http://www.w3.org/TR/2001/REC-SVG-20010904/DTD/svg10.dtd">
<svg version="1.0" xmlns="http://www.w3.org/2000/svg"
 width="1243.000000pt" height="262.000000pt" viewBox="0 0 1243.000000 262.000000"
 preserveAspectRatio="xMidYMid meet">

<g transform="translate(0.000000,262.000000) scale(0.100000,-0.100000)"
fill="#000000" stroke="none">
<path d="M250 2322 c-77 -29 -108 -51 -150 -103 -76 -97 -74 -70 -78 -839 l-3
-686 23 -33 c49 -73 58 -76 269 -79 180 -3 191 -2 229 19 49 28 80 86 80 152
l0 47 268 0 c292 0 356 7 438 44 l55 25 8 -22 c5 -12 17 -44 27 -72 27 -77
104 -148 189 -174 61 -19 91 -21 357 -21 243 0 295 3 323 16 30 14 36 14 64 0
44 -23 363 -23 420 0 36 14 42 14 71 -1 26 -14 61 -16 220 -13 173 3 191 5
217 24 64 48 68 65 73 334 l5 245 132 3 132 3 3 -255 c3 -239 4 -256 24 -282
49 -66 58 -69 262 -72 156 -3 192 -1 223 13 33 16 39 16 67 1 27 -14 96 -16
565 -16 512 0 538 1 602 21 51 15 78 31 116 68 l50 48 20 -26 c31 -39 94 -78
154 -96 44 -12 120 -15 439 -15 365 0 389 1 425 20 53 27 72 61 128 239 46
146 50 154 83 171 42 22 102 83 124 127 8 17 24 61 34 98 l18 67 149 -368
c170 -424 183 -452 224 -487 40 -33 102 -40 348 -35 176 3 194 5 220 24 47 35
65 71 178 355 l110 274 7 -100 c4 -55 12 -120 18 -145 27 -107 103 -188 208
-220 60 -19 94 -20 517 -20 425 0 457 1 518 20 35 11 70 27 77 35 21 25 31 17
28 -22 -3 -35 -7 -40 -60 -66 -85 -43 -170 -49 -621 -45 -369 3 -407 5 -462
23 -81 27 -157 99 -191 180 -26 64 -26 64 -8 -52 13 -86 92 -175 190 -214 l59
-24 465 0 c461 0 466 0 532 23 37 13 70 28 73 33 17 26 25 1 25 -73 0 -102 22
-154 79 -186 36 -20 52 -22 217 -22 205 0 229 7 276 75 21 31 27 52 28 92 0
51 1 52 33 58 17 3 151 4 297 3 239 -3 270 -1 320 16 30 10 71 30 90 42 l34
24 39 -38 38 -37 572 0 572 0 53 24 c99 45 163 141 178 266 l5 50 -25 -59
c-31 -73 -93 -138 -157 -166 -85 -36 -180 -41 -689 -38 -456 3 -488 4 -515 22
-17 10 -39 30 -51 44 l-21 25 -34 -25 c-76 -57 -117 -63 -439 -63 l-295 0 -3
38 -3 37 295 0 c259 0 301 2 354 19 33 10 74 28 92 41 l32 22 31 -30 c18 -17
45 -36 60 -41 40 -16 1035 -15 1111 0 116 24 210 107 242 215 12 44 15 97 12
281 -3 218 -4 231 -28 288 l-26 60 28 85 c15 47 27 103 27 125 -1 35 -5 27
-37 -67 -20 -59 -40 -110 -44 -114 -18 -17 -5 41 38 166 50 150 54 204 16 257
-46 65 -33 64 -644 61 l-553 -3 -55 -28 c-30 -16 -72 -45 -92 -64 l-37 -36
-42 38 c-23 20 -67 49 -98 64 l-56 26 -490 0 -490 0 -60 -30 c-33 -16 -63 -31
-67 -33 -5 -2 -8 25 -8 60 0 143 -36 244 -112 314 -86 80 -80 79 -628 79
l-485 0 -55 -26 c-62 -29 -123 -86 -150 -139 -19 -37 -39 -121 -43 -180 l-2
-35 -142 -5 c-204 -7 -195 3 -333 -343 -52 -130 -97 -237 -100 -237 -3 0 -50
109 -104 243 -54 133 -109 256 -121 273 -43 57 -74 64 -264 64 -152 0 -176 -2
-211 -20 -21 -11 -45 -29 -53 -41 l-15 -21 -78 39 -78 38 -490 0 -491 0 -60
-30 c-33 -16 -63 -31 -67 -33 -5 -2 -8 34 -8 80 0 177 -60 286 -189 347 l-56
26 -562 0 c-551 0 -562 0 -590 -21 -15 -11 -38 -40 -50 -64 -21 -41 -23 -58
-23 -207 l0 -162 -67 32 -68 32 -490 0 -490 0 -56 -26 c-31 -15 -75 -44 -98
-64 l-42 -38 -42 41 c-23 23 -64 51 -92 64 -50 23 -54 23 -519 26 -498 3 -514
2 -608 -47 -34 -17 -38 -17 -38 -2 0 9 -5 57 -9 108 -15 154 -68 240 -179 295
l-67 33 -475 2 c-424 2 -480 0 -520 -15z m982 -13 c100 -21 162 -69 209 -159
21 -40 24 -62 27 -188 l4 -142 35 34 c22 21 59 42 99 55 62 20 84 21 517 21
489 0 509 -2 589 -55 21 -14 50 -43 64 -65 l26 -39 32 42 c40 53 86 83 152
103 44 12 126 14 520 12 465 -3 469 -3 519 -26 28 -13 62 -35 77 -49 l26 -25
4 203 c3 227 6 237 70 270 35 18 64 19 562 19 501 0 527 -1 591 -21 87 -27
153 -89 184 -172 17 -47 21 -80 21 -178 l0 -121 41 33 c85 67 100 69 605 69
436 0 456 -1 519 -21 40 -14 78 -34 97 -54 l33 -32 15 31 c8 16 30 41 49 53
32 22 43 23 213 23 199 0 222 -6 255 -62 11 -18 66 -149 123 -290 57 -142 106
-258 110 -258 3 0 55 123 115 272 66 163 121 285 137 303 l26 30 160 3 159 3
6 85 c9 144 74 241 191 281 46 16 96 18 516 18 532 0 544 -2 623 -79 71 -69
89 -120 95 -274 l5 -133 26 24 c14 14 40 31 56 39 75 37 111 39 585 36 461 -3
465 -3 515 -26 54 -25 98 -62 125 -104 l17 -28 32 45 c23 32 50 53 99 77 l67
33 547 3 c606 3 588 4 628 -61 29 -47 24 -86 -29 -247 l-48 -145 27 -35 c66
-84 65 -81 65 -365 l0 -260 -27 -51 c-31 -59 -84 -108 -147 -138 -45 -21 -58
-21 -608 -21 l-562 0 -31 30 c-17 16 -33 40 -37 53 l-6 23 -31 -30 c-17 -16
-53 -40 -81 -53 -48 -22 -62 -23 -375 -28 l-325 -5 -5 -157 -5 -158 -33 -32
-32 -33 -198 0 c-181 0 -199 2 -224 20 -50 37 -58 77 -58 280 l0 185 -45 -34
c-80 -62 -74 -61 -600 -61 -448 0 -483 1 -529 19 -66 25 -128 84 -157 149 -23
49 -24 66 -29 317 l-5 265 -139 -347 c-105 -263 -145 -353 -168 -375 l-29 -28
-247 -3 c-289 -4 -297 -2 -336 82 -13 28 -101 247 -197 486 l-174 435 -5 -195
c-4 -113 -11 -211 -18 -232 -21 -62 -79 -124 -144 -154 -21 -9 -38 -22 -38
-29 0 -24 -100 -321 -116 -344 -35 -49 -56 -51 -452 -51 -206 0 -393 4 -422
10 -67 13 -139 58 -175 110 l-28 40 -17 -27 c-27 -43 -70 -80 -125 -105 l-50
-23 -549 -3 c-529 -3 -550 -2 -586 17 -36 18 -39 19 -61 3 -20 -14 -55 -18
-194 -20 -186 -4 -227 3 -266 44 l-24 26 -5 351 -5 352 -160 0 -160 0 -5 -352
-5 -351 -23 -25 c-42 -44 -68 -49 -259 -45 -152 3 -182 6 -205 21 -26 18 -28
18 -54 0 -25 -16 -51 -18 -220 -18 -174 0 -194 2 -213 19 -20 18 -21 18 -48 0
-26 -18 -51 -19 -343 -19 l-315 0 -55 26 c-66 31 -111 75 -141 138 -19 39 -23
67 -27 184 -2 75 -8 137 -13 137 -5 0 -9 -4 -9 -9 0 -6 -35 -27 -77 -48 l-77
-38 -317 -3 -317 -4 -4 -146 c-4 -166 -12 -194 -68 -224 -31 -17 -54 -19 -217
-16 -166 3 -184 5 -210 24 -55 41 -53 14 -50 774 l2 705 23 46 c41 82 99 129
192 155 60 17 885 19 962 3z m5884 -1239 c86 -217 168 -410 181 -428 44 -60
57 -62 323 -62 260 0 277 3 318 55 11 14 71 152 132 308 62 155 117 286 121
291 31 35 -7 -84 -110 -341 -134 -335 -154 -369 -231 -384 -58 -11 -402 -11
-459 0 -84 17 -93 33 -280 501 -151 376 -193 497 -162 465 5 -6 80 -188 167
-405z m-3496 250 l0 -41 -137 3 c-136 3 -138 3 -141 26 -7 50 -2 52 143 52
l135 0 0 -40z m-2230 -309 c0 -38 -43 -75 -113 -97 -42 -14 -109 -18 -354 -22
l-303 -4 0 41 0 41 296 0 c312 0 361 6 429 49 41 26 45 26 45 -8z"/>
<path d="M275 2194 c-48 -18 -82 -48 -103 -94 -15 -31 -17 -104 -17 -710 l0
-675 165 0 165 0 5 580 5 580 265 0 265 0 3 -224 2 -224 -184 6 c-147 4 -187
3 -196 -8 -16 -19 -110 -306 -104 -316 3 -5 155 -9 337 -9 300 0 336 2 372 19
52 23 92 71 101 119 4 20 8 215 8 432 1 367 0 397 -18 430 -58 109 -63 110
-595 109 -354 0 -443 -3 -476 -15z"/>
<path d="M4245 2198 c-3 -7 -4 -344 -3 -748 l3 -735 526 -3 525 -2 54 27 c101
52 95 4 95 723 l0 625 -22 35 c-12 20 -41 47 -65 60 l-43 25 -533 3 c-426 2
-533 0 -537 -10z m867 -555 c2 -126 2 -310 0 -410 l-2 -183 -265 0 -265 0 0
410 0 410 265 0 264 0 3 -227z"/>
<path d="M4680 1460 l0 -310 165 0 165 0 0 310 0 310 -165 0 -165 0 0 -310z
m305 250 l0 -35 -137 -3 -138 -3 0 41 0 41 138 -3 137 -3 0 -35z m-7 -332 l-3
-203 -130 0 -130 0 -3 190 c-1 104 0 195 2 202 4 10 39 13 136 13 l130 0 -2
-202z"/>
<path d="M8468 2200 c-50 -15 -96 -50 -114 -88 -18 -35 -19 -73 -19 -652 0
-600 0 -616 21 -655 15 -30 34 -47 74 -67 l54 -28 451 0 451 0 50 25 c36 18
57 37 75 67 l24 43 3 593 c2 416 -1 605 -9 634 -14 53 -72 112 -124 127 -47
13 -894 14 -937 1z m732 -740 l0 -410 -265 0 -265 0 0 410 0 410 265 0 265 0
0 -410z"/>
<path d="M8770 1460 l0 -310 165 0 165 0 0 310 0 310 -165 0 -165 0 0 -310z
m300 250 l0 -41 -137 3 c-136 3 -138 3 -141 26 -7 50 -2 52 143 52 l135 0 0
-40z m-2 -332 l-3 -203 -115 -3 c-177 -4 -160 -26 -160 202 0 106 3 196 7 199
3 4 66 7 140 7 l133 0 -2 -202z"/>
<path d="M1635 1804 c-49 -18 -82 -49 -101 -93 -22 -52 -21 -836 1 -889 44
-104 79 -113 426 -110 l274 3 53 154 c37 110 49 158 41 165 -6 7 -93 11 -242
11 l-232 0 -3 223 -2 222 270 0 270 0 2 -387 3 -388 165 0 165 0 0 485 c0 439
-2 488 -17 516 -23 43 -71 81 -116 94 -23 6 -203 10 -477 9 -358 0 -447 -3
-480 -15z"/>
<path d="M2997 1806 c-50 -18 -76 -42 -98 -91 -17 -37 -19 -76 -19 -522 l0
-483 165 0 165 0 2 388 3 387 266 3 266 2 7 -52 c3 -29 6 -205 6 -391 l0 -337
163 2 162 3 0 485 c0 469 -1 486 -21 525 -15 30 -34 47 -74 68 l-54 27 -450 0
c-354 -1 -459 -4 -489 -14z"/>
<path d="M5725 1805 c-64 -23 -101 -70 -115 -151 -17 -98 -10 -775 9 -824 19
-48 48 -79 96 -101 37 -17 72 -19 417 -19 l377 0 15 28 c30 58 96 286 86 296
-6 6 -132 9 -340 8 l-330 -2 0 225 0 225 270 0 270 0 0 -30 0 -30 -239 0 -239
0 -6 -22 c-8 -30 -8 -256 0 -285 l6 -23 332 0 c300 0 335 2 371 19 93 42 104
79 104 346 1 183 -2 215 -18 250 -23 50 -45 70 -100 90 -62 21 -905 22 -966 0z"/>
<path d="M6975 1810 c-7 -11 -1 -36 22 -90 20 -48 34 -81 43 -105 5 -11 15
-36 23 -55 8 -19 88 -218 177 -442 l163 -408 212 0 c158 0 215 3 222 13 14 17
433 1066 433 1084 0 11 -29 13 -162 11 l-163 -3 -152 -379 c-83 -208 -156
-383 -162 -389 -7 -7 -14 -8 -21 -1 -6 6 -79 181 -163 390 l-152 379 -157 3
c-100 2 -159 -1 -163 -8z"/>
<path d="M9830 1811 c-61 -19 -92 -43 -113 -89 -22 -47 -22 -51 -22 -722 l0
-675 154 -3 c104 -2 158 1 167 9 12 10 14 109 14 585 l0 574 264 0 c261 0 264
0 269 -21 3 -12 5 -112 4 -223 l-2 -201 -190 -5 -190 -5 -52 -154 c-29 -84
-50 -157 -47 -162 3 -5 152 -9 332 -9 323 0 328 0 378 24 35 16 59 36 75 62
l24 39 3 407 c2 283 -1 421 -9 450 -13 52 -62 100 -116 116 -46 14 -899 16
-943 3z"/>
<path d="M11188 1810 c-63 -19 -96 -49 -118 -108 -20 -52 -21 -72 -18 -262 3
-194 4 -207 27 -246 13 -24 41 -52 65 -65 41 -24 45 -24 411 -29 l370 -5 0
-23 0 -23 -424 1 c-304 0 -427 -3 -437 -11 -20 -17 -20 -301 0 -318 10 -9 150
-11 538 -9 l523 3 43 25 c81 46 87 64 90 310 2 135 0 229 -7 251 -15 51 -48
88 -95 110 -37 17 -72 19 -403 19 l-363 0 0 30 0 30 387 2 386 3 49 145 c26
79 48 152 48 162 0 17 -28 18 -522 17 -288 0 -535 -4 -550 -9z"/>
<path d="M600 1649 c0 -106 2 -120 16 -115 9 3 81 6 160 6 l144 0 0 115 0 115
-160 0 -160 0 0 -121z m300 61 l0 -40 -140 0 -140 0 0 40 0 40 140 0 140 0 0
-40z m-15 -135 c-23 -8 -265 -11 -265 -3 0 4 62 8 138 7 75 0 133 -2 127 -4z"/>
<path d="M1960 1265 l0 -115 160 0 160 0 0 115 0 115 -160 0 -160 0 0 -115z
m300 55 l0 -40 -140 0 -140 0 0 40 0 40 140 0 140 0 0 -40z"/>
<path d="M10137 1374 c-4 -4 -7 -57 -7 -118 l0 -111 152 3 c84 1 159 5 166 7
9 4 12 32 10 112 l-3 108 -156 3 c-85 1 -158 -1 -162 -4z m298 -54 l0 -35
-137 -3 -138 -3 0 41 0 41 138 -3 137 -3 0 -35z m-255 -140 c0 -5 -5 -10 -11
-10 -5 0 -7 5 -4 10 3 6 8 10 11 10 2 0 4 -4 4 -10z"/>
<path d="M6925 1120 c-15 -70 -99 -168 -173 -202 -4 -2 -31 -76 -60 -165 -29
-89 -62 -173 -73 -187 -47 -60 -54 -61 -418 -64 -193 -2 -369 1 -419 7 -103
13 -179 47 -222 99 l-30 36 -46 -47 c-35 -34 -65 -53 -113 -69 -66 -23 -70
-23 -606 -23 -483 0 -543 2 -570 17 -28 15 -33 15 -60 0 -23 -12 -67 -17 -176
-20 -191 -5 -246 6 -293 59 l-36 39 0 -32 c1 -44 28 -96 63 -122 26 -19 44
-21 214 -24 135 -2 194 0 217 10 20 8 66 12 131 10 74 -3 110 1 137 12 54 23
115 20 173 -9 l50 -24 349 -1 c407 0 425 3 512 83 l53 48 34 -34 c94 -95 106
-97 582 -97 379 0 402 1 432 20 47 28 60 53 117 226 36 112 57 160 71 168 92
50 148 127 166 225 12 71 8 122 -6 61z"/>
<path d="M1391 745 c-1 -41 27 -144 48 -178 33 -54 93 -103 155 -126 53 -20
75 -21 364 -21 238 1 312 4 331 14 21 11 30 11 57 0 47 -20 388 -19 423 0 17
9 44 12 81 9 34 -3 84 1 128 11 95 22 113 20 158 -10 30 -21 46 -25 78 -21 71
10 126 73 126 145 l0 32 -36 -39 c-47 -53 -102 -64 -293 -59 -109 3 -154 8
-176 20 -28 15 -33 15 -60 0 -25 -14 -62 -17 -215 -17 -153 0 -190 3 -215 17
-28 15 -32 15 -60 0 -26 -15 -69 -17 -325 -17 -254 0 -303 3 -352 18 -100 32
-176 111 -209 217 -6 20 -7 21 -8 5z"/>
<path d="M26 575 c12 -93 62 -146 149 -160 26 -3 113 -3 195 1 118 5 156 11
179 25 37 22 59 64 67 126 l7 48 -24 -34 c-48 -70 -71 -76 -279 -76 -211 0
-231 6 -276 80 l-25 40 7 -50z"/>
<path d="M9567 175 c9 -62 32 -103 72 -127 32 -20 51 -23 182 -26 173 -5 245
7 282 46 30 31 47 72 47 111 l0 28 -43 -42 c-39 -39 -48 -43 -110 -50 -96 -10
-317 -2 -347 14 -14 7 -39 29 -57 49 l-32 37 6 -40z"/>
</g>
</svg>
